<?xml version="1.0" encoding="UTF-8" standalone="no"?>
<!DOCTYPE svg PUBLIC "-//W3C//DTD SVG 1.1//EN" "http://www.w3.org/Graphics/SVG/1.1/DTD/svg11.dtd">
<svg width="100%" height="100%" viewBox="0 0 392 47" version="1.1" xmlns="http://www.w3.org/2000/svg" xmlns:xlink="http://www.w3.org/1999/xlink" xml:space="preserve" xmlns:serif="http://www.serif.com/" style="fill-rule:evenodd;clip-rule:evenodd;stroke-linejoin:round;stroke-miterlimit:2;">
    <g transform="matrix(1,0,0,1,-225.435,-284.126)">
        <path d="M252.073,303.39L243.819,303.39L240.81,311.973L249.096,311.973L252.073,303.39ZM250.304,285.08L245.091,300.02L253.292,300.02L258.632,285.08L262.574,285.08L257.297,300.02L267.077,300.02L265.933,303.39L256.089,303.39L253.038,311.973L263.602,311.973L262.447,315.342L251.893,315.342L246.616,330.219L242.611,330.219L247.952,315.342L239.591,315.342L234.251,330.219L230.309,330.219L235.586,315.342L225.435,315.342L226.643,311.973L236.741,311.973L239.877,303.39L228.91,303.39L230.002,300.02L240.99,300.02L246.362,285.08L250.304,285.08ZM514.97,285.716L514.97,292.963L529.529,292.963L529.529,330.219L537.794,330.219L537.794,292.963L552.416,292.963L552.416,285.716L514.97,285.716ZM578.546,330.918C590.752,330.918 598.254,323.543 598.254,311.591L598.254,285.716L590.117,285.716L590.117,310.065C590.117,318.012 585.73,322.335 578.546,322.335C571.425,322.335 567.102,318.012 567.102,310.065L567.102,285.716L558.837,285.716L558.837,311.591C558.837,323.543 566.53,330.918 578.546,330.918ZM616.755,330.219L616.755,285.716L608.553,285.716L608.553,330.219L616.755,330.219Z" style="fill:rgb(137,180,187);"/>
    </g>
    <g transform="matrix(1,0,0,1,-225.435,-284.889)">
        <path d="M311.453,325.589C312.386,326.203 313.434,326.659 314.579,326.934C315.734,327.22 317.101,327.358 318.701,327.358L319.273,327.358L319.273,331.299C319.167,331.321 319.04,331.331 318.87,331.331C317.98,331.395 317.366,331.427 317.037,331.427C315.607,331.427 314.091,331.151 312.491,330.6C310.891,330.049 309.376,329.255 307.946,328.237C306.102,329.435 304.152,330.346 302.097,330.96C300.041,331.565 297.88,331.872 295.633,331.872C289.18,331.872 283.723,329.594 279.284,325.027C274.833,320.471 272.608,314.823 272.608,308.105C272.608,304.958 273.212,301.959 274.42,299.098C275.639,296.248 277.387,293.694 279.686,291.438C281.901,289.265 284.338,287.634 286.997,286.532C289.657,285.44 292.539,284.889 295.644,284.889C302.277,284.889 307.797,287.146 312.184,291.66C316.571,296.163 318.764,301.896 318.764,308.857C318.764,312.206 318.16,315.257 316.963,317.991C315.755,320.735 313.922,323.268 311.453,325.589ZM308.009,322.781C310.023,320.778 311.548,318.521 312.608,316.01C313.657,313.488 314.187,310.839 314.187,308.041C314.187,302.913 312.364,298.494 308.719,294.786C305.085,291.067 300.698,289.212 295.559,289.212C290.6,289.212 286.298,291.088 282.685,294.828C279.061,298.569 277.249,302.934 277.249,307.914C277.249,308.889 277.313,309.853 277.44,310.817C277.557,311.782 277.758,312.757 278.023,313.753C279.644,312.99 281.223,312.428 282.77,312.068C284.327,311.708 285.959,311.528 287.676,311.528C291.215,311.528 294.478,312.333 297.477,313.933C300.465,315.533 303.972,318.489 308.009,322.781ZM304.375,325.461C300.571,321.477 297.488,318.871 295.146,317.641C292.794,316.402 290.155,315.787 287.209,315.787C286.033,315.787 284.825,315.946 283.596,316.253C282.367,316.561 281.011,317.058 279.549,317.747C281.244,320.852 283.543,323.279 286.457,325.037C289.36,326.796 292.497,327.676 295.877,327.676C297.265,327.676 298.642,327.496 300.03,327.125C301.419,326.754 302.87,326.203 304.375,325.461ZM344.269,331.554C355.776,331.554 362.96,324.433 362.96,312.672L362.96,286.479L358.065,286.479L358.065,311.782C358.065,321.064 352.788,326.404 344.269,326.404C335.813,326.404 330.536,321.064 330.536,311.782L330.536,286.479L325.578,286.479L325.578,312.672C325.578,324.433 332.825,331.554 344.269,331.554ZM378.854,310.383L404.284,310.383L404.284,305.997L378.854,305.997L378.854,290.865L407.654,290.865L407.654,286.479L374.022,286.479L374.022,330.982L408.29,330.982L408.29,326.595L378.854,326.595L378.854,310.383ZM453.556,330.982L438.87,314.579C448.088,313.498 453.238,308.667 453.238,300.656C453.238,291.565 446.626,286.479 435.055,286.479L417.826,286.479L417.826,330.982L422.721,330.982L422.721,314.77L432.766,314.77L447.325,330.982L453.556,330.982ZM434.928,290.865C443.574,290.865 448.342,294.108 448.342,300.72C448.342,307.395 443.574,310.383 434.864,310.383L422.721,310.383L422.721,290.865L434.928,290.865Z" style="fill:rgb(33,62,110);"/>
    </g>
    <g transform="matrix(1,0,0,1,-225.435,-285.005)">
        <path d="M509.156,294.683L509.174,294.716C509.734,295.7 510.17,296.73 510.483,297.783L510.496,297.827C510.52,297.908 510.543,297.989 510.566,298.07L510.587,298.151L510.631,298.316C510.648,298.384 510.665,298.453 510.682,298.522L510.698,298.588C510.96,299.699 511.095,300.849 511.095,302.019L511.095,302.06L511.096,302.061C511.082,305.881 509.598,309.661 506.766,312.493L505.929,313.33C505.727,312.799 505.413,312.301 504.986,311.874L493.639,300.528C494.381,300.163 495.067,299.676 495.669,299.074L497.845,296.897C498.277,296.466 498.277,295.767 497.845,295.335C497.414,294.904 496.715,294.904 496.283,295.335L494.107,297.512C493.085,298.534 491.725,299.097 490.28,299.097L485.929,299.097C485.637,299.097 485.356,299.214 485.149,299.421L481.818,302.751C480.829,303.74 479.22,303.74 478.231,302.751C477.242,301.762 477.242,300.153 478.231,299.164L485.834,291.561C490.481,286.914 497.735,285.892 503.474,289.076C503.507,289.094 503.54,289.11 503.573,289.125C504.726,289.778 505.798,290.591 506.76,291.553C507.707,292.5 508.509,293.552 509.156,294.683ZM500.278,285.492C498.247,285.006 496.125,284.889 494.043,285.166C490.667,285.616 487.577,287.029 485.044,289.272C481.932,286.514 477.971,285.005 473.777,285.005C469.234,285.005 464.962,286.775 461.75,289.987C458.537,293.2 456.768,297.472 456.768,302.015C456.768,306.559 458.537,310.83 461.75,314.043L462.166,314.459C462.238,314.531 462.318,314.591 462.404,314.639C462.477,315.594 462.878,316.529 463.607,317.258C464.418,318.069 465.484,318.475 466.55,318.475C466.605,318.475 466.66,318.473 466.715,318.471C466.713,318.527 466.711,318.582 466.711,318.639C466.711,319.75 467.144,320.795 467.93,321.581C468.742,322.392 469.807,322.798 470.873,322.798C470.928,322.798 470.983,322.796 471.039,322.794C471.037,322.85 471.035,322.906 471.035,322.962C471.035,324.073 471.468,325.119 472.254,325.905C473.065,326.716 474.131,327.121 475.196,327.121C475.252,327.121 475.308,327.119 475.364,327.118C475.319,328.238 475.723,329.374 476.577,330.228C477.363,331.014 478.408,331.447 479.52,331.447C480.631,331.447 481.677,331.014 482.462,330.228L484.006,328.685L486.09,330.769C486.876,331.555 487.921,331.988 489.033,331.988C490.145,331.988 491.19,331.555 491.975,330.769C492.84,329.905 493.243,328.752 493.187,327.618C493.256,327.622 493.326,327.623 493.396,327.623C494.461,327.623 495.527,327.218 496.338,326.407C497.192,325.553 497.596,324.418 497.551,323.298C497.607,323.3 497.663,323.302 497.719,323.302C498.831,323.302 499.876,322.869 500.662,322.083C501.515,321.229 501.919,320.094 501.875,318.974C501.93,318.976 501.986,318.978 502.043,318.978C503.154,318.978 504.199,318.546 504.985,317.759C505.384,317.36 505.685,316.899 505.888,316.407C505.995,316.355 506.096,316.285 506.186,316.196L508.327,314.054C511.372,311.01 513.062,307.01 513.28,302.911L513.282,302.912C513.297,302.616 513.305,302.318 513.305,302.02L513.304,301.963L513.304,301.86C513.303,301.796 513.302,301.732 513.301,301.668C513.299,301.595 513.297,301.522 513.295,301.449L513.291,301.35L513.284,301.171C513.281,301.101 513.277,301.031 513.272,300.96L513.261,300.79L513.253,300.685C513.247,300.602 513.24,300.518 513.232,300.435L513.218,300.285L513.204,300.157C513.195,300.073 513.186,299.989 513.175,299.905L513.163,299.81C513.153,299.732 513.142,299.654 513.131,299.576L513.122,299.515C513.107,299.414 513.092,299.312 513.075,299.21L513.069,299.178C512.49,295.715 510.855,292.524 508.323,289.992C506.072,287.741 503.3,286.199 500.28,285.477L500.278,285.492ZM466.55,316.268C466.028,316.268 465.537,316.065 465.169,315.696C464.8,315.327 464.596,314.837 464.596,314.315C464.596,313.794 464.8,313.303 465.169,312.934L467.071,311.031C467.44,310.662 467.931,310.459 468.453,310.459C468.974,310.459 469.465,310.662 469.833,311.031C470.595,311.793 470.595,313.032 469.833,313.793L467.93,315.696C467.561,316.065 467.071,316.268 466.55,316.268ZM469.492,320.02C469.123,319.651 468.92,319.16 468.92,318.639C468.92,318.117 469.123,317.627 469.492,317.258L471.395,315.355C471.764,314.986 472.255,314.783 472.776,314.783C473.298,314.783 473.788,314.986 474.157,315.355C474.919,316.116 474.919,317.355 474.157,318.116L472.254,320.02C471.493,320.781 470.253,320.781 469.492,320.02ZM473.816,324.343C473.447,323.974 473.244,323.484 473.244,322.962C473.244,322.44 473.447,321.95 473.816,321.581L475.719,319.678L475.719,319.678C476.087,319.309 476.578,319.106 477.1,319.106C477.621,319.106 478.112,319.309 478.48,319.678C479.242,320.44 479.242,321.678 478.48,322.44L476.577,324.343C475.816,325.105 474.577,325.105 473.816,324.343ZM482.804,326.763L480.901,328.667C480.532,329.036 480.042,329.239 479.52,329.239C478.998,329.239 478.508,329.036 478.139,328.667C477.378,327.905 477.378,326.667 478.139,325.905L480.042,324.002C480.411,323.633 480.902,323.43 481.423,323.43C481.945,323.43 482.435,323.633 482.804,324.002C483.173,324.37 483.376,324.861 483.376,325.383C483.376,325.905 483.173,326.395 482.804,326.763ZM503.424,316.198C503.056,316.567 502.565,316.77 502.044,316.77C501.522,316.77 501.031,316.567 500.663,316.198L496.066,311.601C496.066,311.601 496.066,311.601 496.065,311.601L491.742,307.278C491.311,306.846 490.612,306.846 490.181,307.278C489.749,307.709 489.749,308.408 490.181,308.839L499.101,317.759C499.862,318.521 499.862,319.76 499.101,320.521C498.732,320.89 498.241,321.093 497.72,321.093C497.198,321.093 496.708,320.89 496.339,320.521L487.419,311.601C486.987,311.17 486.288,311.17 485.857,311.601C485.426,312.032 485.426,312.731 485.857,313.163L490.179,317.485C490.18,317.486 490.18,317.486 490.181,317.487L494.777,322.083C495.539,322.845 495.539,324.084 494.777,324.845C494.016,325.606 492.777,325.606 492.015,324.845L487.419,320.248C487.334,320.163 487.238,320.096 487.137,320.044L485.826,318.733C485.394,318.302 484.695,318.302 484.263,318.733C483.832,319.164 483.832,319.864 484.263,320.295L490.414,326.446C491.176,327.207 491.176,328.446 490.414,329.207C490.046,329.576 489.555,329.779 489.034,329.779C488.512,329.779 488.022,329.576 487.653,329.207L485.312,326.867C485.491,326.399 485.585,325.898 485.585,325.382C485.585,324.271 485.152,323.226 484.366,322.44C483.58,321.654 482.535,321.221 481.423,321.221C481.367,321.221 481.311,321.223 481.256,321.225C481.3,320.105 480.896,318.97 480.043,318.116C479.256,317.33 478.211,316.897 477.1,316.897C477.044,316.897 476.988,316.899 476.932,316.901C476.976,315.781 476.573,314.646 475.719,313.793C474.933,313.007 473.888,312.574 472.777,312.574C472.72,312.574 472.664,312.576 472.609,312.578C472.653,311.458 472.249,310.323 471.396,309.469C469.773,307.847 467.133,307.847 465.51,309.469L463.607,311.372C463.367,311.613 463.164,311.875 462.995,312.153C460.401,309.398 458.977,305.816 458.977,302.015C458.977,298.062 460.516,294.344 463.312,291.549C466.108,288.754 469.825,287.214 473.778,287.214C477.371,287.214 480.768,288.486 483.456,290.816L476.67,297.602C475.773,298.498 475.28,299.69 475.28,300.957C475.28,302.225 475.773,303.417 476.67,304.313C477.595,305.238 478.81,305.701 480.025,305.701C481.24,305.701 482.455,305.238 483.381,304.313L486.388,301.306L490.28,301.306C490.602,301.306 490.92,301.284 491.234,301.245L503.425,313.436C504.186,314.197 504.186,315.436 503.424,316.198" style="fill:rgb(33,62,110);"/>
    </g>
</svg>
